<svg width="108" height="108" viewBox="0 0 108 108" fill="none" xmlns="http://www.w3.org/2000/svg">
<path d="M53.9999 67.6389C61.531 67.6389 67.6363 61.5337 67.6363 54.0026C67.6363 46.4714 61.531 40.3662 53.9999 40.3662C46.4687 40.3662 40.3635 46.4714 40.3635 54.0026C40.3635 61.5337 46.4687 67.6389 53.9999 67.6389Z" stroke="black" stroke-width="8" stroke-linecap="round" stroke-linejoin="round"/>
<path d="M87.6364 67.6364C87.0313 69.0073 86.8508 70.5282 87.1182 72.0027C87.3855 73.4772 88.0885 74.8378 89.1364 75.9091L89.4091 76.1818C90.2543 77.0261 90.9249 78.0287 91.3824 79.1324C91.8399 80.236 92.0753 81.4189 92.0753 82.6136C92.0753 83.8083 91.8399 84.9913 91.3824 86.0949C90.9249 87.1985 90.2543 88.2011 89.4091 89.0454C88.5648 89.8907 87.5622 90.5612 86.4585 91.0187C85.3549 91.4762 84.172 91.7117 82.9773 91.7117C81.7826 91.7117 80.5996 91.4762 79.496 91.0187C78.3924 90.5612 77.3898 89.8907 76.5454 89.0454L76.2727 88.7727C75.2015 87.7248 73.8408 87.0219 72.3663 86.7545C70.8918 86.4872 69.371 86.6677 68 87.2727C66.6556 87.8489 65.509 88.8057 64.7014 90.0252C63.8938 91.2447 63.4604 92.6737 63.4545 94.1364V94.9091C63.4545 97.3201 62.4968 99.6325 60.7919 101.337C59.087 103.042 56.7747 104 54.3636 104C51.9526 104 49.6403 103.042 47.9354 101.337C46.2305 99.6325 45.2727 97.3201 45.2727 94.9091V94.5C45.2375 92.9955 44.7505 91.5363 43.875 90.3123C42.9996 89.0882 41.7761 88.1558 40.3636 87.6364C38.9927 87.0313 37.4718 86.8508 35.9973 87.1182C34.5228 87.3855 33.1622 88.0885 32.0909 89.1364L31.8182 89.4091C30.9739 90.2543 29.9713 90.9249 28.8676 91.3824C27.764 91.8399 26.581 92.0753 25.3864 92.0753C24.1917 92.0753 23.0087 91.8399 21.9051 91.3824C20.8015 90.9249 19.7988 90.2543 18.9545 89.4091C18.1093 88.5648 17.4388 87.5622 16.9813 86.4585C16.5238 85.3549 16.2883 84.172 16.2883 82.9773C16.2883 81.7826 16.5238 80.5996 16.9813 79.496C17.4388 78.3924 18.1093 77.3898 18.9545 76.5454L19.2273 76.2727C20.2752 75.2015 20.9781 73.8408 21.2455 72.3663C21.5128 70.8918 21.3323 69.371 20.7273 68C20.1511 66.6556 19.1943 65.509 17.9748 64.7014C16.7553 63.8938 15.3263 63.4604 13.8636 63.4545H13.0909C10.6798 63.4545 8.36754 62.4968 6.66267 60.7919C4.95779 59.087 4 56.7747 4 54.3636C4 51.9526 4.95779 49.6403 6.66267 47.9354C8.36754 46.2305 10.6798 45.2727 13.0909 45.2727H13.5C15.0045 45.2375 16.4637 44.7505 17.6877 43.875C18.9118 42.9996 19.8442 41.7761 20.3636 40.3636C20.9687 38.9927 21.1492 37.4718 20.8818 35.9973C20.6145 34.5228 19.9115 33.1622 18.8636 32.0909L18.5909 31.8182C17.7457 30.9739 17.0751 29.9713 16.6176 28.8676C16.1601 27.764 15.9247 26.581 15.9247 25.3864C15.9247 24.1917 16.1601 23.0087 16.6176 21.9051C17.0751 20.8015 17.7457 19.7988 18.5909 18.9545C19.4352 18.1093 20.4378 17.4388 21.5415 16.9813C22.6451 16.5238 23.828 16.2883 25.0227 16.2883C26.2174 16.2883 27.4004 16.5238 28.504 16.9813C29.6076 17.4388 30.6102 18.1093 31.4545 18.9545L31.7273 19.2273C32.7985 20.2752 34.1592 20.9781 35.6337 21.2455C37.1082 21.5128 38.629 21.3323 40 20.7273H40.3636C41.708 20.1511 42.8546 19.1943 43.6622 17.9748C44.4699 16.7553 44.9033 15.3263 44.9091 13.8636V13.0909C44.9091 10.6798 45.8669 8.36754 47.5718 6.66267C49.2766 4.95779 51.5889 4 54 4C56.4111 4 58.7234 4.95779 60.4282 6.66267C62.1331 8.36754 63.0909 10.6798 63.0909 13.0909V13.5C63.0967 14.9627 63.5301 16.3917 64.3378 17.6112C65.1454 18.8307 66.292 19.7874 67.6364 20.3636C69.0073 20.9687 70.5282 21.1492 72.0027 20.8818C73.4772 20.6145 74.8378 19.9115 75.9091 18.8636L76.1818 18.5909C77.0261 17.7457 78.0287 17.0751 79.1324 16.6176C80.236 16.1601 81.4189 15.9247 82.6136 15.9247C83.8083 15.9247 84.9913 16.1601 86.0949 16.6176C87.1985 17.0751 88.2011 17.7457 89.0454 18.5909C89.8907 19.4352 90.5612 20.4378 91.0187 21.5415C91.4762 22.6451 91.7117 23.828 91.7117 25.0227C91.7117 26.2174 91.4762 27.4004 91.0187 28.504C90.5612 29.6076 89.8907 30.6102 89.0454 31.4545L88.7727 31.7273C87.7248 32.7985 87.0219 34.1592 86.7545 35.6337C86.4872 37.1082 86.6677 38.629 87.2727 40V40.3636C87.8489 41.708 88.8057 42.8546 90.0252 43.6622C91.2447 44.4699 92.6737 44.9033 94.1364 44.9091H94.9091C97.3201 44.9091 99.6325 45.8669 101.337 47.5718C103.042 49.2766 104 51.5889 104 54C104 56.4111 103.042 58.7234 101.337 60.4282C99.6325 62.1331 97.3201 63.0909 94.9091 63.0909H94.5C93.0373 63.0967 91.6083 63.5301 90.3888 64.3378C89.1693 65.1454 88.2126 66.292 87.6364 67.6364Z" stroke="black" stroke-width="8" stroke-linecap="round" stroke-linejoin="round"/>
</svg>
