<svg width="90" height="98" viewBox="0 0 90 98" fill="none" xmlns="http://www.w3.org/2000/svg">
<path d="M40.7574 2.24264C43.1005 -0.100505 46.8995 -0.100505 49.2426 2.24264L88.75 41.75C91.0564 44.0564 89.4229 48 86.1612 48V48C84.1392 48 82.5 49.6392 82.5 51.6612V92C82.5 95.3137 79.8137 98 76.5 98H63.5C60.1863 98 57.5 95.3137 57.5 92V72.75C57.5 69.4363 54.8137 66.75 51.5 66.75H45H38.5C35.1863 66.75 32.5 69.4363 32.5 72.75V92C32.5 95.3137 29.8137 98 26.5 98H13.5C10.1863 98 7.5 95.3137 7.5 92V51.6612C7.5 49.6392 5.86084 48 3.83883 48V48C0.577085 48 -1.05641 44.0564 1.25 41.75L40.7574 2.24264Z" fill="black"/>
</svg>
