<svg width="108" height="108" viewBox="0 0 108 108" fill="none" xmlns="http://www.w3.org/2000/svg">
<g filter="url(#filter0_d_51_4)">
<rect width="100" height="100" rx="20" transform="matrix(-1 0 0 1 100 0)" fill="#33B58A"/>
<rect x="-0.25" y="0.25" width="99.5" height="99.5" rx="19.75" transform="matrix(-1 0 0 1 99.5 0)" stroke="#FF4B12" stroke-opacity="0.3" stroke-width="0.5"/>
<path d="M20.9179 26.5628C19.3558 25.0007 19.3558 22.468 20.9179 20.9059C22.48 19.3439 25.0127 19.3439 26.5748 20.9059L20.9179 26.5628ZM76.7794 76.7674L32.1651 64.813L64.825 32.1532L76.7794 76.7674ZM26.5748 20.9059L54.1519 48.4831L48.4951 54.14L20.9179 26.5628L26.5748 20.9059Z" fill="white"/>
</g>
<defs>
<filter id="filter0_d_51_4" x="0" y="0" width="108" height="108" filterUnits="userSpaceOnUse" color-interpolation-filters="sRGB">
<feFlood flood-opacity="0" result="BackgroundImageFix"/>
<feColorMatrix in="SourceAlpha" type="matrix" values="0 0 0 0 0 0 0 0 0 0 0 0 0 0 0 0 0 0 127 0" result="hardAlpha"/>
<feOffset dx="4" dy="4"/>
<feGaussianBlur stdDeviation="2"/>
<feComposite in2="hardAlpha" operator="out"/>
<feColorMatrix type="matrix" values="0 0 0 0 0 0 0 0 0 0 0 0 0 0 0 0 0 0 0.25 0"/>
<feBlend mode="normal" in2="BackgroundImageFix" result="effect1_dropShadow_51_4"/>
<feBlend mode="normal" in="SourceGraphic" in2="effect1_dropShadow_51_4" result="shape"/>
</filter>
</defs>
</svg>
