<svg width="100" height="100" viewBox="0 0 100 100" fill="none" xmlns="http://www.w3.org/2000/svg">
<path d="M85.3553 85.3553C89.9983 80.7124 93.6812 75.2005 96.194 69.1342C98.7067 63.0679 100 56.5661 100 50H50L85.3553 85.3553Z" fill="black"/>
<path d="M50 0C41.9505 -9.59895e-08 34.02 1.94344 26.8825 5.66514C19.745 9.38684 13.6116 14.7768 9.0035 21.3768C4.39544 27.9768 1.44899 35.5919 0.41457 43.5747C-0.619849 51.5574 0.28835 59.6719 3.06197 67.2285C5.8356 74.7851 10.3926 81.5603 16.3458 86.9783C22.2989 92.3963 29.4722 96.2969 37.2559 98.3486C45.0395 100.4 53.2035 100.542 61.0538 98.7628C68.9042 96.9833 76.2088 93.3347 82.3469 88.1271L50 50L50 0Z" fill="black"/>
<path d="M99.8782 46.5122C99.0334 34.4312 93.8326 23.0674 85.2418 14.5315C76.651 5.99561 65.2541 0.867779 53.168 0.100462L50 50L99.8782 46.5122Z" fill="black"/>
</svg>
