<svg width="97" height="79" viewBox="0 0 97 79" fill="none" xmlns="http://www.w3.org/2000/svg">
<path d="M96 1.04271C91.8648 3.912 87.2864 6.10654 82.4409 7.54183C79.8402 4.60028 76.3839 2.51539 72.5395 1.56913C68.695 0.622865 64.6478 0.860891 60.9454 2.25101C57.2429 3.64113 54.0637 6.11627 51.8379 9.34168C49.612 12.5671 48.4469 16.3871 48.5 20.2852V24.533C40.9114 24.7265 33.3919 23.0709 26.6112 19.7136C19.8305 16.3563 13.9991 11.4015 9.63636 5.2905C9.63636 5.2905 -7.63636 43.5206 31.2273 60.5117C22.3341 66.45 11.74 69.4275 1 69.0073C39.8636 90.2462 87.3636 69.0073 87.3636 20.1577C87.3597 18.9745 87.244 17.7943 87.0182 16.6321C91.4253 12.3567 94.5354 6.95866 96 1.04271Z" fill="black" stroke="black" stroke-width="2" stroke-linecap="round" stroke-linejoin="round"/>
</svg>
